# xmcd
#
# Track frame offsets:
#	182
#	18152
#	36110
#	57330
#	72700
#	87740
#	97797
#	113707
#	133695
#	146375
#	163997
#	179290
#	196877
#	212710
#
# Disc length: 2975 seconds
#
# Revision: 1
# Processed by: cddbd v1.5.2PL0 Copyright (c) Steve Scherf et al.
# Submitted via: audiograbber 1.83.01
#
DISCID=c80b9d0e
DTITLE=Mirek Matousek - Cekam az se rozedni
DYEAR=1900
DGENRE=
TTITLE0=Taxis
TTITLE1=Cekam az se rozedni
TTITLE2=Svatebni parte
TTITLE3=Copak te souzi
TTITLE4=Stari
TTITLE5=Divci leta
TTITLE6=Zimni bile rano
TTITLE7=Uz se k tobe blizim
TTITLE8=Kral Valcik
TTITLE9=V desti jsem stal
TTITLE10=A ty ptas se
TTITLE11=Stuj tu chvili
TTITLE12=Vyslechni me prani
TTITLE13=Mej se bejby
EXTD=
EXTT0=
EXTT1=
EXTT2=
EXTT3=
EXTT4=
EXTT5=
EXTT6=
EXTT7=
EXTT8=
EXTT9=
EXTT10=
EXTT11=
EXTT12=
EXTT13=
PLAYORDER=
